<?xml version="1.0" encoding="UTF-8" standalone="no"?>
<svg
   version="1.0"
   width="81.000000pt"
   height="80.000000pt"
   viewBox="0 0 81.000000 80.000000"
   preserveAspectRatio="xMidYMid meet"
   id="svg27"
   sodipodi:docname="logo-mini.svg"
   inkscape:version="1.1.1 (3bf5ae0d25, 2021-09-20)"
   xmlns:inkscape="http://www.inkscape.org/namespaces/inkscape"
   xmlns:sodipodi="http://sodipodi.sourceforge.net/DTD/sodipodi-0.dtd"
   xmlns="http://www.w3.org/2000/svg"
   xmlns:svg="http://www.w3.org/2000/svg">
  <defs
     id="defs31" />
  <sodipodi:namedview
     id="namedview29"
     pagecolor="#ffffff"
     bordercolor="#111111"
     borderopacity="1"
     inkscape:pageshadow="0"
     inkscape:pageopacity="0"
     inkscape:pagecheckerboard="1"
     inkscape:document-units="pt"
     showgrid="false"
     inkscape:zoom="7.584375"
     inkscape:cx="-3.4940255"
     inkscape:cy="53.333333"
     inkscape:window-width="1920"
     inkscape:window-height="1017"
     inkscape:window-x="1672"
     inkscape:window-y="-8"
     inkscape:window-maximized="1"
     inkscape:current-layer="svg27" />
  <g
     transform="translate(0.000000,80.000000) scale(0.100000,-0.100000)"
     fill="#000000"
     stroke="none"
     id="g25">
    <path
       d="M431 746 c-29 -30 -50 -59 -47 -65 5 -7 44 -11 104 -11 l96 0 -62 -63 -63 -64 -37 18 c-101 50 -230 30 -314 -49 -128 -119 -138 -289 -23 -419 52 -60 116 -88 205 -90 117 -3 204 44 258 139 45 82 57 136 42 200 -7 29 -20 63 -28 76 -15 23 -13 26 46 85 l62 62 0 -86 c0 -119 10 -125 83 -51 l58 58 -3 155 -3 154 -160 3 -160 2 -54 -54z m332 -123 c-1 -112 -5 -138 -19 -154 -9 -10 -20 -19 -23 -19 -3 0 -5 41 -3 91 2 57 -1 96 -7 102 -8 8 -39 -16 -111 -88 -91 -91 -116 -125 -91 -125 16 0 34 -63 37 -130 3 -82 -19 -137 -78 -191 -123 -112 -317 -81 -391 61 -22 42 -27 65 -27 121 0 102 21 141 114 217 47 38 172 43 247 10 l51 -21 94 94 c52 51 94 99 94 106 0 10 -25 13 -95 13 -52 0 -95 3 -95 7 0 4 9 16 19 27 18 20 29 21 153 18 l133 -3 -2 -136z"
       id="path21" />
    <path
       d="M255 481 c-44 -11 -75 -30 -107 -65 -33 -35 -43 -64 -41 -121 2 -61 4 -69 32 -110 50 -73 154 -105 234 -71 46 19 105 90 115 140 27 134 -102 260 -233 227z m106 -37 c122 -49 135 -214 22 -290 -37 -25 -113 -29 -154 -8 -33 17 -89 80 -90 102 -5 89 7 127 53 169 47 44 102 53 169 27z"
       id="path23" />
  </g>
  <path
     style="fill:none;stroke-width:0.13185"
     d="M 36.918006,106.13068 C 26.793692,105.57709 19.127289,102.27721 12.855377,95.773337 9.4325448,92.22391 6.8655375,88.611168 4.7579942,84.377282 2.902775,80.650294 1.7346918,76.983128 1.1018698,72.898977 0.67876243,70.168296 0.67842381,65.375586 1.1011456,62.647802 2.4281469,54.084787 6.4315633,46.495111 13.180112,39.748497 c 2.419003,-2.41831 3.633351,-3.427102 6.120118,-5.084151 4.103883,-2.734612 9.233359,-4.81338 14.106942,-5.716972 4.485157,-0.831574 9.648046,-0.810976 14.142747,0.05643 3.294518,0.635786 5.785061,1.537378 10.253051,3.711665 1.769384,0.861048 3.284805,1.565541 3.367601,1.565541 0.143147,0 16.577884,-16.643554 16.660289,-16.87197 0.02164,-0.05999 -4.339299,-0.137847 -9.690976,-0.173021 -5.890088,-0.03872 -10.380786,-0.125031 -11.37845,-0.2187 -3.301898,-0.310008 -5.137324,-0.719466 -5.449234,-1.215646 -0.311766,-0.495949 1.30355,-2.987689 3.883792,-5.9910276 0.67956,-0.790993 3.104596,-3.313268 5.388967,-5.6050554 l 4.153401,-4.16688626 7.713226,0.10098897 c 15.498026,0.20291507 34.613274,0.55951771 34.713254,0.64758976 0.0564,0.0497201 0.28393,9.30661753 0.50552,20.57088253 l 0.40289,20.480484 -4.06547,4.077923 c -8.232757,8.257987 -10.354638,10.031786 -12.000374,10.031786 -1.385585,0 -2.093863,-1.715339 -2.413592,-5.84535 -0.07017,-0.906469 -0.128938,-5.519572 -0.130583,-10.251339 -0.0016,-4.731768 -0.05324,-8.603214 -0.114644,-8.603214 -0.197838,0 -12.715986,12.680703 -13.770296,13.949112 -2.070713,2.491212 -2.197507,3.289755 -0.877273,5.524958 1.762229,2.983519 3.743169,8.844551 4.425195,13.092885 0.34525,2.150563 0.313419,6.051647 -0.06706,8.218623 -0.714955,4.071928 -1.955382,7.552297 -4.50795,12.648309 -2.598244,5.187202 -4.847379,8.387987 -8.183559,11.646174 -6.220455,6.075034 -13.875949,9.240694 -23.714162,9.806154 -2.528587,0.14533 -3.010834,0.145 -5.735476,-0.004 z m 6.394726,-5.13394 c 5.289315,-0.6755 10.499521,-2.591645 14.775664,-5.434007 2.1671,-1.440478 3.369946,-2.426115 5.510415,-4.515348 5.529808,-5.397444 8.201158,-10.697021 9.050055,-17.954023 0.230256,-1.968393 0.260891,-6.471702 0.05998,-8.816477 -0.439034,-5.123781 -1.526996,-10.065875 -2.817413,-12.798174 -0.716928,-1.518006 -1.27181,-2.095955 -2.124506,-2.212831 -0.797473,-0.109305 -0.98489,-0.269466 -0.98489,-0.841649 0,-1.8376 5.627437,-8.281538 16.192583,-18.542013 5.422609,-5.266233 8.319635,-7.744863 10.12069,-8.659032 1.452976,-0.737491 1.864291,-0.432293 2.229745,1.654479 0.381027,2.175697 0.487862,6.154875 0.323865,12.06259 -0.113916,4.1036 -0.114364,6.164106 -0.0018,8.240627 0.171884,3.170571 0.220047,3.494219 0.519871,3.493532 0.609456,-0.0014 2.961837,-2.138858 3.699593,-3.361593 1.114246,-1.846727 1.608186,-5.320218 1.799946,-12.657691 0.0858,-3.28343 0.42099,-25.1594849 0.38634,-25.214682 -0.0494,-0.078733 -23.542143,-0.5616089 -27.332075,-0.5617918 -5.492326,-2.637e-4 -7.323808,0.1923523 -8.951006,0.9413792 -1.462073,0.6730162 -4.937661,4.8959076 -4.439505,5.3940636 0.15919,0.15919 1.200427,0.343883 2.946593,0.522662 0.761434,0.07796 5.211372,0.227758 9.888752,0.332888 9.731705,0.218733 11.22724,0.361469 12.097239,1.154577 0.409814,0.373593 0.375778,0.603693 -0.221133,1.494989 -1.65757,2.475048 -5.471655,6.564839 -15.741307,16.879194 l -8.684628,8.72243 -2.394225,-0.986874 c -5.469557,-2.25449 -6.964583,-2.81797 -8.658185,-3.263293 -2.144639,-0.563923 -4.977214,-1.05231 -7.35279,-1.267755 -2.304735,-0.209021 -8.381169,-0.09454 -10.445878,0.196808 -4.690253,0.661827 -8.66107,2.059682 -10.870934,3.826919 -3.391951,2.712561 -7.310015,6.393284 -9.196448,8.639363 -3.3316086,3.966779 -4.9375585,7.694888 -5.7364735,13.316852 -0.3452785,2.429726 -0.3450871,11.913254 2.901e-4,14.061151 0.4776851,2.970772 1.2914553,5.344571 2.9516456,8.610064 5.2676408,10.361128 14.9277788,16.732256 26.8733548,17.723726 1.085507,0.0901 5.324075,-0.0275 6.526575,-0.18106 z"
     id="path483"
     transform="scale(0.75)" />
  <path
     style="fill:none;stroke-width:0.13185"
     d="M 36.918006,106.13068 C 26.793692,105.57709 19.127289,102.27721 12.855377,95.773337 9.4325448,92.22391 6.8655375,88.611168 4.7579942,84.377282 2.902775,80.650294 1.7346918,76.983128 1.1018698,72.898977 0.67876243,70.168296 0.67842381,65.375586 1.1011456,62.647802 2.4281469,54.084787 6.4315633,46.495111 13.180112,39.748497 c 2.419003,-2.41831 3.633351,-3.427102 6.120118,-5.084151 4.103883,-2.734612 9.233359,-4.81338 14.106942,-5.716972 4.485157,-0.831574 9.648046,-0.810976 14.142747,0.05643 3.294518,0.635786 5.785061,1.537378 10.253051,3.711665 1.769384,0.861048 3.284805,1.565541 3.367601,1.565541 0.143147,0 16.577884,-16.643554 16.660289,-16.87197 0.02164,-0.05999 -4.339299,-0.137847 -9.690976,-0.173021 -5.890088,-0.03872 -10.380786,-0.125031 -11.37845,-0.2187 -3.301898,-0.310008 -5.137324,-0.719466 -5.449234,-1.215646 -0.311766,-0.495949 1.30355,-2.987689 3.883792,-5.9910276 0.67956,-0.790993 3.104596,-3.313268 5.388967,-5.6050554 l 4.153401,-4.16688626 7.713226,0.10098897 c 15.498026,0.20291507 34.613274,0.55951771 34.713254,0.64758976 0.0564,0.0497201 0.28393,9.30661753 0.50552,20.57088253 l 0.40289,20.480484 -4.06547,4.077923 c -8.232757,8.257987 -10.354638,10.031786 -12.000374,10.031786 -1.385585,0 -2.093863,-1.715339 -2.413592,-5.84535 -0.07017,-0.906469 -0.128938,-5.519572 -0.130583,-10.251339 -0.0016,-4.731768 -0.05324,-8.603214 -0.114644,-8.603214 -0.197838,0 -12.715986,12.680703 -13.770296,13.949112 -2.070713,2.491212 -2.197507,3.289755 -0.877273,5.524958 1.762229,2.983519 3.743169,8.844551 4.425195,13.092885 0.34525,2.150563 0.313419,6.051647 -0.06706,8.218623 -0.714955,4.071928 -1.955382,7.552297 -4.50795,12.648309 -2.598244,5.187202 -4.847379,8.387987 -8.183559,11.646174 -6.220455,6.075034 -13.875949,9.240694 -23.714162,9.806154 -2.528587,0.14533 -3.010834,0.145 -5.735476,-0.004 z m 6.394726,-5.13394 c 5.289315,-0.6755 10.499521,-2.591645 14.775664,-5.434007 2.1671,-1.440478 3.369946,-2.426115 5.510415,-4.515348 5.529808,-5.397444 8.201158,-10.697021 9.050055,-17.954023 0.230256,-1.968393 0.260891,-6.471702 0.05998,-8.816477 -0.439034,-5.123781 -1.526996,-10.065875 -2.817413,-12.798174 -0.716928,-1.518006 -1.27181,-2.095955 -2.124506,-2.212831 -0.797473,-0.109305 -0.98489,-0.269466 -0.98489,-0.841649 0,-1.8376 5.627437,-8.281538 16.192583,-18.542013 5.422609,-5.266233 8.319635,-7.744863 10.12069,-8.659032 1.452976,-0.737491 1.864291,-0.432293 2.229745,1.654479 0.381027,2.175697 0.487862,6.154875 0.323865,12.06259 -0.113916,4.1036 -0.114364,6.164106 -0.0018,8.240627 0.171884,3.170571 0.220047,3.494219 0.519871,3.493532 0.609456,-0.0014 2.961837,-2.138858 3.699593,-3.361593 1.114246,-1.846727 1.608186,-5.320218 1.799946,-12.657691 0.0858,-3.28343 0.42099,-25.1594849 0.38634,-25.214682 -0.0494,-0.078733 -23.542143,-0.5616089 -27.332075,-0.5617918 -5.492326,-2.637e-4 -7.323808,0.1923523 -8.951006,0.9413792 -1.462073,0.6730162 -4.937661,4.8959076 -4.439505,5.3940636 0.15919,0.15919 1.200427,0.343883 2.946593,0.522662 0.761434,0.07796 5.211372,0.227758 9.888752,0.332888 9.731705,0.218733 11.22724,0.361469 12.097239,1.154577 0.409814,0.373593 0.375778,0.603693 -0.221133,1.494989 -1.65757,2.475048 -5.471655,6.564839 -15.741307,16.879194 l -8.684628,8.72243 -2.394225,-0.986874 c -5.469557,-2.25449 -6.964583,-2.81797 -8.658185,-3.263293 -2.144639,-0.563923 -4.977214,-1.05231 -7.35279,-1.267755 -2.304735,-0.209021 -8.381169,-0.09454 -10.445878,0.196808 -4.690253,0.661827 -8.66107,2.059682 -10.870934,3.826919 -3.391951,2.712561 -7.310015,6.393284 -9.196448,8.639363 -3.3316086,3.966779 -4.9375585,7.694888 -5.7364735,13.316852 -0.3452785,2.429726 -0.3450871,11.913254 2.901e-4,14.061151 0.4776851,2.970772 1.2914553,5.344571 2.9516456,8.610064 5.2676408,10.361128 14.9277788,16.732256 26.8733548,17.723726 1.085507,0.0901 5.324075,-0.0275 6.526575,-0.18106 z"
     id="path522"
     transform="scale(0.75)" />
  <path
     style="fill:none;stroke-width:0.13185"
     d="M 36.918006,106.13068 C 26.793692,105.57709 19.127289,102.27721 12.855377,95.773337 9.4325448,92.22391 6.8655375,88.611168 4.7579942,84.377282 2.902775,80.650294 1.7346918,76.983128 1.1018698,72.898977 0.67876243,70.168296 0.67842381,65.375586 1.1011456,62.647802 2.4281469,54.084787 6.4315633,46.495111 13.180112,39.748497 c 2.419003,-2.41831 3.633351,-3.427102 6.120118,-5.084151 4.103883,-2.734612 9.233359,-4.81338 14.106942,-5.716972 4.485157,-0.831574 9.648046,-0.810976 14.142747,0.05643 3.294518,0.635786 5.785061,1.537378 10.253051,3.711665 1.769384,0.861048 3.284805,1.565541 3.367601,1.565541 0.143147,0 16.577884,-16.643554 16.660289,-16.87197 0.02164,-0.05999 -4.339299,-0.137847 -9.690976,-0.173021 -5.890088,-0.03872 -10.380786,-0.125031 -11.37845,-0.2187 -3.301898,-0.310008 -5.137324,-0.719466 -5.449234,-1.215646 -0.311766,-0.495949 1.30355,-2.987689 3.883792,-5.9910276 0.67956,-0.790993 3.104596,-3.313268 5.388967,-5.6050554 l 4.153401,-4.16688626 7.713226,0.10098897 c 15.498026,0.20291507 34.613274,0.55951771 34.713254,0.64758976 0.0564,0.0497201 0.28393,9.30661753 0.50552,20.57088253 l 0.40289,20.480484 -4.06547,4.077923 c -8.232757,8.257987 -10.354638,10.031786 -12.000374,10.031786 -1.385585,0 -2.093863,-1.715339 -2.413592,-5.84535 -0.07017,-0.906469 -0.128938,-5.519572 -0.130583,-10.251339 -0.0016,-4.731768 -0.05324,-8.603214 -0.114644,-8.603214 -0.197838,0 -12.715986,12.680703 -13.770296,13.949112 -2.070713,2.491212 -2.197507,3.289755 -0.877273,5.524958 1.762229,2.983519 3.743169,8.844551 4.425195,13.092885 0.34525,2.150563 0.313419,6.051647 -0.06706,8.218623 -0.714955,4.071928 -1.955382,7.552297 -4.50795,12.648309 -2.598244,5.187202 -4.847379,8.387987 -8.183559,11.646174 -6.220455,6.075034 -13.875949,9.240694 -23.714162,9.806154 -2.528587,0.14533 -3.010834,0.145 -5.735476,-0.004 z m 6.394726,-5.13394 c 5.289315,-0.6755 10.499521,-2.591645 14.775664,-5.434007 2.1671,-1.440478 3.369946,-2.426115 5.510415,-4.515348 5.529808,-5.397444 8.201158,-10.697021 9.050055,-17.954023 0.230256,-1.968393 0.260891,-6.471702 0.05998,-8.816477 -0.439034,-5.123781 -1.526996,-10.065875 -2.817413,-12.798174 -0.716928,-1.518006 -1.27181,-2.095955 -2.124506,-2.212831 -0.797473,-0.109305 -0.98489,-0.269466 -0.98489,-0.841649 0,-1.8376 5.627437,-8.281538 16.192583,-18.542013 5.422609,-5.266233 8.319635,-7.744863 10.12069,-8.659032 1.452976,-0.737491 1.864291,-0.432293 2.229745,1.654479 0.381027,2.175697 0.487862,6.154875 0.323865,12.06259 -0.113916,4.1036 -0.114364,6.164106 -0.0018,8.240627 0.171884,3.170571 0.220047,3.494219 0.519871,3.493532 0.609456,-0.0014 2.961837,-2.138858 3.699593,-3.361593 1.114246,-1.846727 1.608186,-5.320218 1.799946,-12.657691 0.0858,-3.28343 0.42099,-25.1594849 0.38634,-25.214682 -0.0494,-0.078733 -23.542143,-0.5616089 -27.332075,-0.5617918 -5.492326,-2.637e-4 -7.323808,0.1923523 -8.951006,0.9413792 -1.462073,0.6730162 -4.937661,4.8959076 -4.439505,5.3940636 0.15919,0.15919 1.200427,0.343883 2.946593,0.522662 0.761434,0.07796 5.211372,0.227758 9.888752,0.332888 9.731705,0.218733 11.22724,0.361469 12.097239,1.154577 0.409814,0.373593 0.375778,0.603693 -0.221133,1.494989 -1.65757,2.475048 -5.471655,6.564839 -15.741307,16.879194 l -8.684628,8.72243 -2.394225,-0.986874 c -5.469557,-2.25449 -6.964583,-2.81797 -8.658185,-3.263293 -2.144639,-0.563923 -4.977214,-1.05231 -7.35279,-1.267755 -2.304735,-0.209021 -8.381169,-0.09454 -10.445878,0.196808 -4.690253,0.661827 -8.66107,2.059682 -10.870934,3.826919 -3.391951,2.712561 -7.310015,6.393284 -9.196448,8.639363 -3.3316086,3.966779 -4.9375585,7.694888 -5.7364735,13.316852 -0.3452785,2.429726 -0.3450871,11.913254 2.901e-4,14.061151 0.4776851,2.970772 1.2914553,5.344571 2.9516456,8.610064 5.2676408,10.361128 14.9277788,16.732256 26.8733548,17.723726 1.085507,0.0901 5.324075,-0.0275 6.526575,-0.18106 z"
     id="path561"
     transform="scale(0.75)" />
  <path
     style="fill:none;stroke-width:0.13185"
     d="M 36.918006,106.13068 C 26.793692,105.57709 19.127289,102.27721 12.855377,95.773337 9.4325448,92.22391 6.8655375,88.611168 4.7579942,84.377282 2.902775,80.650294 1.7346918,76.983128 1.1018698,72.898977 0.67876243,70.168296 0.67842381,65.375586 1.1011456,62.647802 2.4281469,54.084787 6.4315633,46.495111 13.180112,39.748497 c 2.419003,-2.41831 3.633351,-3.427102 6.120118,-5.084151 4.103883,-2.734612 9.233359,-4.81338 14.106942,-5.716972 4.485157,-0.831574 9.648046,-0.810976 14.142747,0.05643 3.294518,0.635786 5.785061,1.537378 10.253051,3.711665 1.769384,0.861048 3.284805,1.565541 3.367601,1.565541 0.143147,0 16.577884,-16.643554 16.660289,-16.87197 0.02164,-0.05999 -4.339299,-0.137847 -9.690976,-0.173021 -5.890088,-0.03872 -10.380786,-0.125031 -11.37845,-0.2187 -3.301898,-0.310008 -5.137324,-0.719466 -5.449234,-1.215646 -0.311766,-0.495949 1.30355,-2.987689 3.883792,-5.9910276 0.67956,-0.790993 3.104596,-3.313268 5.388967,-5.6050554 l 4.153401,-4.16688626 7.713226,0.10098897 c 15.498026,0.20291507 34.613274,0.55951771 34.713254,0.64758976 0.0564,0.0497201 0.28393,9.30661753 0.50552,20.57088253 l 0.40289,20.480484 -4.06547,4.077923 c -8.232757,8.257987 -10.354638,10.031786 -12.000374,10.031786 -1.385585,0 -2.093863,-1.715339 -2.413592,-5.84535 -0.07017,-0.906469 -0.128938,-5.519572 -0.130583,-10.251339 -0.0016,-4.731768 -0.05324,-8.603214 -0.114644,-8.603214 -0.197838,0 -12.715986,12.680703 -13.770296,13.949112 -2.070713,2.491212 -2.197507,3.289755 -0.877273,5.524958 1.762229,2.983519 3.743169,8.844551 4.425195,13.092885 0.34525,2.150563 0.313419,6.051647 -0.06706,8.218623 -0.714955,4.071928 -1.955382,7.552297 -4.50795,12.648309 -2.598244,5.187202 -4.847379,8.387987 -8.183559,11.646174 -6.220455,6.075034 -13.875949,9.240694 -23.714162,9.806154 -2.528587,0.14533 -3.010834,0.145 -5.735476,-0.004 z m 6.394726,-5.13394 c 5.289315,-0.6755 10.499521,-2.591645 14.775664,-5.434007 2.1671,-1.440478 3.369946,-2.426115 5.510415,-4.515348 5.529808,-5.397444 8.201158,-10.697021 9.050055,-17.954023 0.230256,-1.968393 0.260891,-6.471702 0.05998,-8.816477 -0.439034,-5.123781 -1.526996,-10.065875 -2.817413,-12.798174 -0.716928,-1.518006 -1.27181,-2.095955 -2.124506,-2.212831 -0.797473,-0.109305 -0.98489,-0.269466 -0.98489,-0.841649 0,-1.8376 5.627437,-8.281538 16.192583,-18.542013 5.422609,-5.266233 8.319635,-7.744863 10.12069,-8.659032 1.452976,-0.737491 1.864291,-0.432293 2.229745,1.654479 0.381027,2.175697 0.487862,6.154875 0.323865,12.06259 -0.113916,4.1036 -0.114364,6.164106 -0.0018,8.240627 0.171884,3.170571 0.220047,3.494219 0.519871,3.493532 0.609456,-0.0014 2.961837,-2.138858 3.699593,-3.361593 1.114246,-1.846727 1.608186,-5.320218 1.799946,-12.657691 0.0858,-3.28343 0.42099,-25.1594849 0.38634,-25.214682 -0.0494,-0.078733 -23.542143,-0.5616089 -27.332075,-0.5617918 -5.492326,-2.637e-4 -7.323808,0.1923523 -8.951006,0.9413792 -1.462073,0.6730162 -4.937661,4.8959076 -4.439505,5.3940636 0.15919,0.15919 1.200427,0.343883 2.946593,0.522662 0.761434,0.07796 5.211372,0.227758 9.888752,0.332888 9.731705,0.218733 11.22724,0.361469 12.097239,1.154577 0.409814,0.373593 0.375778,0.603693 -0.221133,1.494989 -1.65757,2.475048 -5.471655,6.564839 -15.741307,16.879194 l -8.684628,8.72243 -2.394225,-0.986874 c -5.469557,-2.25449 -6.964583,-2.81797 -8.658185,-3.263293 -2.144639,-0.563923 -4.977214,-1.05231 -7.35279,-1.267755 -2.304735,-0.209021 -8.381169,-0.09454 -10.445878,0.196808 -4.690253,0.661827 -8.66107,2.059682 -10.870934,3.826919 -3.391951,2.712561 -7.310015,6.393284 -9.196448,8.639363 -3.3316086,3.966779 -4.9375585,7.694888 -5.7364735,13.316852 -0.3452785,2.429726 -0.3450871,11.913254 2.901e-4,14.061151 0.4776851,2.970772 1.2914553,5.344571 2.9516456,8.610064 5.2676408,10.361128 14.9277788,16.732256 26.8733548,17.723726 1.085507,0.0901 5.324075,-0.0275 6.526575,-0.18106 z"
     id="path600"
     transform="scale(0.75)" />
  <path
     style="fill:none;stroke-width:0.13185"
     d="M 36.918006,106.13068 C 26.793692,105.57709 19.127289,102.27721 12.855377,95.773337 9.4325448,92.22391 6.8655375,88.611168 4.7579942,84.377282 2.902775,80.650294 1.7346918,76.983128 1.1018698,72.898977 0.67876243,70.168296 0.67842381,65.375586 1.1011456,62.647802 2.4281469,54.084787 6.4315633,46.495111 13.180112,39.748497 c 2.419003,-2.41831 3.633351,-3.427102 6.120118,-5.084151 4.103883,-2.734612 9.233359,-4.81338 14.106942,-5.716972 4.485157,-0.831574 9.648046,-0.810976 14.142747,0.05643 3.294518,0.635786 5.785061,1.537378 10.253051,3.711665 1.769384,0.861048 3.284805,1.565541 3.367601,1.565541 0.143147,0 16.577884,-16.643554 16.660289,-16.87197 0.02164,-0.05999 -4.339299,-0.137847 -9.690976,-0.173021 -5.890088,-0.03872 -10.380786,-0.125031 -11.37845,-0.2187 -3.301898,-0.310008 -5.137324,-0.719466 -5.449234,-1.215646 -0.311766,-0.495949 1.30355,-2.987689 3.883792,-5.9910276 0.67956,-0.790993 3.104596,-3.313268 5.388967,-5.6050554 l 4.153401,-4.16688626 7.713226,0.10098897 c 15.498026,0.20291507 34.613274,0.55951771 34.713254,0.64758976 0.0564,0.0497201 0.28393,9.30661753 0.50552,20.57088253 l 0.40289,20.480484 -4.06547,4.077923 c -8.232757,8.257987 -10.354638,10.031786 -12.000374,10.031786 -1.385585,0 -2.093863,-1.715339 -2.413592,-5.84535 -0.07017,-0.906469 -0.128938,-5.519572 -0.130583,-10.251339 -0.0016,-4.731768 -0.05324,-8.603214 -0.114644,-8.603214 -0.197838,0 -12.715986,12.680703 -13.770296,13.949112 -2.070713,2.491212 -2.197507,3.289755 -0.877273,5.524958 1.762229,2.983519 3.743169,8.844551 4.425195,13.092885 0.34525,2.150563 0.313419,6.051647 -0.06706,8.218623 -0.714955,4.071928 -1.955382,7.552297 -4.50795,12.648309 -2.598244,5.187202 -4.847379,8.387987 -8.183559,11.646174 -6.220455,6.075034 -13.875949,9.240694 -23.714162,9.806154 -2.528587,0.14533 -3.010834,0.145 -5.735476,-0.004 z m 6.394726,-5.13394 c 5.289315,-0.6755 10.499521,-2.591645 14.775664,-5.434007 2.1671,-1.440478 3.369946,-2.426115 5.510415,-4.515348 5.529808,-5.397444 8.201158,-10.697021 9.050055,-17.954023 0.230256,-1.968393 0.260891,-6.471702 0.05998,-8.816477 -0.439034,-5.123781 -1.526996,-10.065875 -2.817413,-12.798174 -0.716928,-1.518006 -1.27181,-2.095955 -2.124506,-2.212831 -0.797473,-0.109305 -0.98489,-0.269466 -0.98489,-0.841649 0,-1.8376 5.627437,-8.281538 16.192583,-18.542013 5.422609,-5.266233 8.319635,-7.744863 10.12069,-8.659032 1.452976,-0.737491 1.864291,-0.432293 2.229745,1.654479 0.381027,2.175697 0.487862,6.154875 0.323865,12.06259 -0.113916,4.1036 -0.114364,6.164106 -0.0018,8.240627 0.171884,3.170571 0.220047,3.494219 0.519871,3.493532 0.609456,-0.0014 2.961837,-2.138858 3.699593,-3.361593 1.114246,-1.846727 1.608186,-5.320218 1.799946,-12.657691 0.0858,-3.28343 0.42099,-25.1594849 0.38634,-25.214682 -0.0494,-0.078733 -23.542143,-0.5616089 -27.332075,-0.5617918 -5.492326,-2.637e-4 -7.323808,0.1923523 -8.951006,0.9413792 -1.462073,0.6730162 -4.937661,4.8959076 -4.439505,5.3940636 0.15919,0.15919 1.200427,0.343883 2.946593,0.522662 0.761434,0.07796 5.211372,0.227758 9.888752,0.332888 9.731705,0.218733 11.22724,0.361469 12.097239,1.154577 0.409814,0.373593 0.375778,0.603693 -0.221133,1.494989 -1.65757,2.475048 -5.471655,6.564839 -15.741307,16.879194 l -8.684628,8.72243 -2.394225,-0.986874 c -5.469557,-2.25449 -6.964583,-2.81797 -8.658185,-3.263293 -2.144639,-0.563923 -4.977214,-1.05231 -7.35279,-1.267755 -2.304735,-0.209021 -8.381169,-0.09454 -10.445878,0.196808 -4.690253,0.661827 -8.66107,2.059682 -10.870934,3.826919 -3.391951,2.712561 -7.310015,6.393284 -9.196448,8.639363 -3.3316086,3.966779 -4.9375585,7.694888 -5.7364735,13.316852 -0.3452785,2.429726 -0.3450871,11.913254 2.901e-4,14.061151 0.4776851,2.970772 1.2914553,5.344571 2.9516456,8.610064 5.2676408,10.361128 14.9277788,16.732256 26.8733548,17.723726 1.085507,0.0901 5.324075,-0.0275 6.526575,-0.18106 z"
     id="path639"
     transform="scale(0.75)" />
  <path
     style="fill:none;stroke-width:0.13185"
     d="M 36.918006,106.13068 C 26.793692,105.57709 19.127289,102.27721 12.855377,95.773337 9.4325448,92.22391 6.8655375,88.611168 4.7579942,84.377282 2.902775,80.650294 1.7346918,76.983128 1.1018698,72.898977 0.67876243,70.168296 0.67842381,65.375586 1.1011456,62.647802 2.4281469,54.084787 6.4315633,46.495111 13.180112,39.748497 c 2.419003,-2.41831 3.633351,-3.427102 6.120118,-5.084151 4.103883,-2.734612 9.233359,-4.81338 14.106942,-5.716972 4.485157,-0.831574 9.648046,-0.810976 14.142747,0.05643 3.294518,0.635786 5.785061,1.537378 10.253051,3.711665 1.769384,0.861048 3.284805,1.565541 3.367601,1.565541 0.143147,0 16.577884,-16.643554 16.660289,-16.87197 0.02164,-0.05999 -4.339299,-0.137847 -9.690976,-0.173021 -5.890088,-0.03872 -10.380786,-0.125031 -11.37845,-0.2187 -3.301898,-0.310008 -5.137324,-0.719466 -5.449234,-1.215646 -0.311766,-0.495949 1.30355,-2.987689 3.883792,-5.9910276 0.67956,-0.790993 3.104596,-3.313268 5.388967,-5.6050554 l 4.153401,-4.16688626 7.713226,0.10098897 c 15.498026,0.20291507 34.613274,0.55951771 34.713254,0.64758976 0.0564,0.0497201 0.28393,9.30661753 0.50552,20.57088253 l 0.40289,20.480484 -4.06547,4.077923 c -8.232757,8.257987 -10.354638,10.031786 -12.000374,10.031786 -1.385585,0 -2.093863,-1.715339 -2.413592,-5.84535 -0.07017,-0.906469 -0.128938,-5.519572 -0.130583,-10.251339 -0.0016,-4.731768 -0.05324,-8.603214 -0.114644,-8.603214 -0.197838,0 -12.715986,12.680703 -13.770296,13.949112 -2.070713,2.491212 -2.197507,3.289755 -0.877273,5.524958 1.762229,2.983519 3.743169,8.844551 4.425195,13.092885 0.34525,2.150563 0.313419,6.051647 -0.06706,8.218623 -0.714955,4.071928 -1.955382,7.552297 -4.50795,12.648309 -2.598244,5.187202 -4.847379,8.387987 -8.183559,11.646174 -6.220455,6.075034 -13.875949,9.240694 -23.714162,9.806154 -2.528587,0.14533 -3.010834,0.145 -5.735476,-0.004 z m 6.394726,-5.13394 c 5.289315,-0.6755 10.499521,-2.591645 14.775664,-5.434007 2.1671,-1.440478 3.369946,-2.426115 5.510415,-4.515348 5.529808,-5.397444 8.201158,-10.697021 9.050055,-17.954023 0.230256,-1.968393 0.260891,-6.471702 0.05998,-8.816477 -0.439034,-5.123781 -1.526996,-10.065875 -2.817413,-12.798174 -0.716928,-1.518006 -1.27181,-2.095955 -2.124506,-2.212831 -0.797473,-0.109305 -0.98489,-0.269466 -0.98489,-0.841649 0,-1.8376 5.627437,-8.281538 16.192583,-18.542013 5.422609,-5.266233 8.319635,-7.744863 10.12069,-8.659032 1.452976,-0.737491 1.864291,-0.432293 2.229745,1.654479 0.381027,2.175697 0.487862,6.154875 0.323865,12.06259 -0.113916,4.1036 -0.114364,6.164106 -0.0018,8.240627 0.171884,3.170571 0.220047,3.494219 0.519871,3.493532 0.609456,-0.0014 2.961837,-2.138858 3.699593,-3.361593 1.114246,-1.846727 1.608186,-5.320218 1.799946,-12.657691 0.0858,-3.28343 0.42099,-25.1594849 0.38634,-25.214682 -0.0494,-0.078733 -23.542143,-0.5616089 -27.332075,-0.5617918 -5.492326,-2.637e-4 -7.323808,0.1923523 -8.951006,0.9413792 -1.462073,0.6730162 -4.937661,4.8959076 -4.439505,5.3940636 0.15919,0.15919 1.200427,0.343883 2.946593,0.522662 0.761434,0.07796 5.211372,0.227758 9.888752,0.332888 9.731705,0.218733 11.22724,0.361469 12.097239,1.154577 0.409814,0.373593 0.375778,0.603693 -0.221133,1.494989 -1.65757,2.475048 -5.471655,6.564839 -15.741307,16.879194 l -8.684628,8.72243 -2.394225,-0.986874 c -5.469557,-2.25449 -6.964583,-2.81797 -8.658185,-3.263293 -2.144639,-0.563923 -4.977214,-1.05231 -7.35279,-1.267755 -2.304735,-0.209021 -8.381169,-0.09454 -10.445878,0.196808 -4.690253,0.661827 -8.66107,2.059682 -10.870934,3.826919 -3.391951,2.712561 -7.310015,6.393284 -9.196448,8.639363 -3.3316086,3.966779 -4.9375585,7.694888 -5.7364735,13.316852 -0.3452785,2.429726 -0.3450871,11.913254 2.901e-4,14.061151 0.4776851,2.970772 1.2914553,5.344571 2.9516456,8.610064 5.2676408,10.361128 14.9277788,16.732256 26.8733548,17.723726 1.085507,0.0901 5.324075,-0.0275 6.526575,-0.18106 z"
     id="path678"
     transform="scale(0.75)" />
  <path
     style="fill:none;stroke-width:0.13185"
     d="M 36.918006,106.13068 C 26.793692,105.57709 19.127289,102.27721 12.855377,95.773337 9.4325448,92.22391 6.8655375,88.611168 4.7579942,84.377282 2.902775,80.650294 1.7346918,76.983128 1.1018698,72.898977 0.67876243,70.168296 0.67842381,65.375586 1.1011456,62.647802 2.4281469,54.084787 6.4315633,46.495111 13.180112,39.748497 c 2.419003,-2.41831 3.633351,-3.427102 6.120118,-5.084151 4.103883,-2.734612 9.233359,-4.81338 14.106942,-5.716972 4.485157,-0.831574 9.648046,-0.810976 14.142747,0.05643 3.294518,0.635786 5.785061,1.537378 10.253051,3.711665 1.769384,0.861048 3.284805,1.565541 3.367601,1.565541 0.143147,0 16.577884,-16.643554 16.660289,-16.87197 0.02164,-0.05999 -4.339299,-0.137847 -9.690976,-0.173021 -5.890088,-0.03872 -10.380786,-0.125031 -11.37845,-0.2187 -3.301898,-0.310008 -5.137324,-0.719466 -5.449234,-1.215646 -0.311766,-0.495949 1.30355,-2.987689 3.883792,-5.9910276 0.67956,-0.790993 3.104596,-3.313268 5.388967,-5.6050554 l 4.153401,-4.16688626 7.713226,0.10098897 c 15.498026,0.20291507 34.613274,0.55951771 34.713254,0.64758976 0.0564,0.0497201 0.28393,9.30661753 0.50552,20.57088253 l 0.40289,20.480484 -4.06547,4.077923 c -8.232757,8.257987 -10.354638,10.031786 -12.000374,10.031786 -1.385585,0 -2.093863,-1.715339 -2.413592,-5.84535 -0.07017,-0.906469 -0.128938,-5.519572 -0.130583,-10.251339 -0.0016,-4.731768 -0.05324,-8.603214 -0.114644,-8.603214 -0.197838,0 -12.715986,12.680703 -13.770296,13.949112 -2.070713,2.491212 -2.197507,3.289755 -0.877273,5.524958 1.762229,2.983519 3.743169,8.844551 4.425195,13.092885 0.34525,2.150563 0.313419,6.051647 -0.06706,8.218623 -0.714955,4.071928 -1.955382,7.552297 -4.50795,12.648309 -2.598244,5.187202 -4.847379,8.387987 -8.183559,11.646174 -6.220455,6.075034 -13.875949,9.240694 -23.714162,9.806154 -2.528587,0.14533 -3.010834,0.145 -5.735476,-0.004 z m 6.394726,-5.13394 c 5.289315,-0.6755 10.499521,-2.591645 14.775664,-5.434007 2.1671,-1.440478 3.369946,-2.426115 5.510415,-4.515348 5.529808,-5.397444 8.201158,-10.697021 9.050055,-17.954023 0.230256,-1.968393 0.260891,-6.471702 0.05998,-8.816477 -0.439034,-5.123781 -1.526996,-10.065875 -2.817413,-12.798174 -0.716928,-1.518006 -1.27181,-2.095955 -2.124506,-2.212831 -0.797473,-0.109305 -0.98489,-0.269466 -0.98489,-0.841649 0,-1.8376 5.627437,-8.281538 16.192583,-18.542013 5.422609,-5.266233 8.319635,-7.744863 10.12069,-8.659032 1.452976,-0.737491 1.864291,-0.432293 2.229745,1.654479 0.381027,2.175697 0.487862,6.154875 0.323865,12.06259 -0.113916,4.1036 -0.114364,6.164106 -0.0018,8.240627 0.171884,3.170571 0.220047,3.494219 0.519871,3.493532 0.609456,-0.0014 2.961837,-2.138858 3.699593,-3.361593 1.114246,-1.846727 1.608186,-5.320218 1.799946,-12.657691 0.0858,-3.28343 0.42099,-25.1594849 0.38634,-25.214682 -0.0494,-0.078733 -23.542143,-0.5616089 -27.332075,-0.5617918 -5.492326,-2.637e-4 -7.323808,0.1923523 -8.951006,0.9413792 -1.462073,0.6730162 -4.937661,4.8959076 -4.439505,5.3940636 0.15919,0.15919 1.200427,0.343883 2.946593,0.522662 0.761434,0.07796 5.211372,0.227758 9.888752,0.332888 9.731705,0.218733 11.22724,0.361469 12.097239,1.154577 0.409814,0.373593 0.375778,0.603693 -0.221133,1.494989 -1.65757,2.475048 -5.471655,6.564839 -15.741307,16.879194 l -8.684628,8.72243 -2.394225,-0.986874 c -5.469557,-2.25449 -6.964583,-2.81797 -8.658185,-3.263293 -2.144639,-0.563923 -4.977214,-1.05231 -7.35279,-1.267755 -2.304735,-0.209021 -8.381169,-0.09454 -10.445878,0.196808 -4.690253,0.661827 -8.66107,2.059682 -10.870934,3.826919 -3.391951,2.712561 -7.310015,6.393284 -9.196448,8.639363 -3.3316086,3.966779 -4.9375585,7.694888 -5.7364735,13.316852 -0.3452785,2.429726 -0.3450871,11.913254 2.901e-4,14.061151 0.4776851,2.970772 1.2914553,5.344571 2.9516456,8.610064 5.2676408,10.361128 14.9277788,16.732256 26.8733548,17.723726 1.085507,0.0901 5.324075,-0.0275 6.526575,-0.18106 z"
     id="path717"
     transform="scale(0.75)" />
  <path
     style="fill:none;stroke-width:0.13185"
     d="M 36.918006,106.13068 C 26.793692,105.57709 19.127289,102.27721 12.855377,95.773337 9.4325448,92.22391 6.8655375,88.611168 4.7579942,84.377282 2.902775,80.650294 1.7346918,76.983128 1.1018698,72.898977 0.67876243,70.168296 0.67842381,65.375586 1.1011456,62.647802 2.4281469,54.084787 6.4315633,46.495111 13.180112,39.748497 c 2.419003,-2.41831 3.633351,-3.427102 6.120118,-5.084151 4.103883,-2.734612 9.233359,-4.81338 14.106942,-5.716972 4.485157,-0.831574 9.648046,-0.810976 14.142747,0.05643 3.294518,0.635786 5.785061,1.537378 10.253051,3.711665 1.769384,0.861048 3.284805,1.565541 3.367601,1.565541 0.143147,0 16.577884,-16.643554 16.660289,-16.87197 0.02164,-0.05999 -4.339299,-0.137847 -9.690976,-0.173021 -5.890088,-0.03872 -10.380786,-0.125031 -11.37845,-0.2187 -3.301898,-0.310008 -5.137324,-0.719466 -5.449234,-1.215646 -0.311766,-0.495949 1.30355,-2.987689 3.883792,-5.9910276 0.67956,-0.790993 3.104596,-3.313268 5.388967,-5.6050554 l 4.153401,-4.16688626 7.713226,0.10098897 c 15.498026,0.20291507 34.613274,0.55951771 34.713254,0.64758976 0.0564,0.0497201 0.28393,9.30661753 0.50552,20.57088253 l 0.40289,20.480484 -4.06547,4.077923 c -8.232757,8.257987 -10.354638,10.031786 -12.000374,10.031786 -1.385585,0 -2.093863,-1.715339 -2.413592,-5.84535 -0.07017,-0.906469 -0.128938,-5.519572 -0.130583,-10.251339 -0.0016,-4.731768 -0.05324,-8.603214 -0.114644,-8.603214 -0.197838,0 -12.715986,12.680703 -13.770296,13.949112 -2.070713,2.491212 -2.197507,3.289755 -0.877273,5.524958 1.762229,2.983519 3.743169,8.844551 4.425195,13.092885 0.34525,2.150563 0.313419,6.051647 -0.06706,8.218623 -0.714955,4.071928 -1.955382,7.552297 -4.50795,12.648309 -2.598244,5.187202 -4.847379,8.387987 -8.183559,11.646174 -6.220455,6.075034 -13.875949,9.240694 -23.714162,9.806154 -2.528587,0.14533 -3.010834,0.145 -5.735476,-0.004 z m 6.394726,-5.13394 c 5.289315,-0.6755 10.499521,-2.591645 14.775664,-5.434007 2.1671,-1.440478 3.369946,-2.426115 5.510415,-4.515348 5.529808,-5.397444 8.201158,-10.697021 9.050055,-17.954023 0.230256,-1.968393 0.260891,-6.471702 0.05998,-8.816477 -0.439034,-5.123781 -1.526996,-10.065875 -2.817413,-12.798174 -0.716928,-1.518006 -1.27181,-2.095955 -2.124506,-2.212831 -0.797473,-0.109305 -0.98489,-0.269466 -0.98489,-0.841649 0,-1.8376 5.627437,-8.281538 16.192583,-18.542013 5.422609,-5.266233 8.319635,-7.744863 10.12069,-8.659032 1.452976,-0.737491 1.864291,-0.432293 2.229745,1.654479 0.381027,2.175697 0.487862,6.154875 0.323865,12.06259 -0.113916,4.1036 -0.114364,6.164106 -0.0018,8.240627 0.171884,3.170571 0.220047,3.494219 0.519871,3.493532 0.609456,-0.0014 2.961837,-2.138858 3.699593,-3.361593 1.114246,-1.846727 1.608186,-5.320218 1.799946,-12.657691 0.0858,-3.28343 0.42099,-25.1594849 0.38634,-25.214682 -0.0494,-0.078733 -23.542143,-0.5616089 -27.332075,-0.5617918 -5.492326,-2.637e-4 -7.323808,0.1923523 -8.951006,0.9413792 -1.462073,0.6730162 -4.937661,4.8959076 -4.439505,5.3940636 0.15919,0.15919 1.200427,0.343883 2.946593,0.522662 0.761434,0.07796 5.211372,0.227758 9.888752,0.332888 9.731705,0.218733 11.22724,0.361469 12.097239,1.154577 0.409814,0.373593 0.375778,0.603693 -0.221133,1.494989 -1.65757,2.475048 -5.471655,6.564839 -15.741307,16.879194 l -8.684628,8.72243 -2.394225,-0.986874 c -5.469557,-2.25449 -6.964583,-2.81797 -8.658185,-3.263293 -2.144639,-0.563923 -4.977214,-1.05231 -7.35279,-1.267755 -2.304735,-0.209021 -8.381169,-0.09454 -10.445878,0.196808 -4.690253,0.661827 -8.66107,2.059682 -10.870934,3.826919 -3.391951,2.712561 -7.310015,6.393284 -9.196448,8.639363 -3.3316086,3.966779 -4.9375585,7.694888 -5.7364735,13.316852 -0.3452785,2.429726 -0.3450871,11.913254 2.901e-4,14.061151 0.4776851,2.970772 1.2914553,5.344571 2.9516456,8.610064 5.2676408,10.361128 14.9277788,16.732256 26.8733548,17.723726 1.085507,0.0901 5.324075,-0.0275 6.526575,-0.18106 z"
     id="path756"
     transform="scale(0.75)" />
  <path
     style="fill:none;stroke-width:0.13185"
     d="M 36.918006,106.13068 C 26.793692,105.57709 19.127289,102.27721 12.855377,95.773337 9.4325448,92.22391 6.8655375,88.611168 4.7579942,84.377282 2.902775,80.650294 1.7346918,76.983128 1.1018698,72.898977 0.67876243,70.168296 0.67842381,65.375586 1.1011456,62.647802 2.4281469,54.084787 6.4315633,46.495111 13.180112,39.748497 c 2.419003,-2.41831 3.633351,-3.427102 6.120118,-5.084151 4.103883,-2.734612 9.233359,-4.81338 14.106942,-5.716972 4.485157,-0.831574 9.648046,-0.810976 14.142747,0.05643 3.294518,0.635786 5.785061,1.537378 10.253051,3.711665 1.769384,0.861048 3.284805,1.565541 3.367601,1.565541 0.143147,0 16.577884,-16.643554 16.660289,-16.87197 0.02164,-0.05999 -4.339299,-0.137847 -9.690976,-0.173021 -5.890088,-0.03872 -10.380786,-0.125031 -11.37845,-0.2187 -3.301898,-0.310008 -5.137324,-0.719466 -5.449234,-1.215646 -0.311766,-0.495949 1.30355,-2.987689 3.883792,-5.9910276 0.67956,-0.790993 3.104596,-3.313268 5.388967,-5.6050554 l 4.153401,-4.16688626 7.713226,0.10098897 c 15.498026,0.20291507 34.613274,0.55951771 34.713254,0.64758976 0.0564,0.0497201 0.28393,9.30661753 0.50552,20.57088253 l 0.40289,20.480484 -4.06547,4.077923 c -8.232757,8.257987 -10.354638,10.031786 -12.000374,10.031786 -1.385585,0 -2.093863,-1.715339 -2.413592,-5.84535 -0.07017,-0.906469 -0.128938,-5.519572 -0.130583,-10.251339 -0.0016,-4.731768 -0.05324,-8.603214 -0.114644,-8.603214 -0.197838,0 -12.715986,12.680703 -13.770296,13.949112 -2.070713,2.491212 -2.197507,3.289755 -0.877273,5.524958 1.762229,2.983519 3.743169,8.844551 4.425195,13.092885 0.34525,2.150563 0.313419,6.051647 -0.06706,8.218623 -0.714955,4.071928 -1.955382,7.552297 -4.50795,12.648309 -2.598244,5.187202 -4.847379,8.387987 -8.183559,11.646174 -6.220455,6.075034 -13.875949,9.240694 -23.714162,9.806154 -2.528587,0.14533 -3.010834,0.145 -5.735476,-0.004 z m 6.394726,-5.13394 c 5.289315,-0.6755 10.499521,-2.591645 14.775664,-5.434007 2.1671,-1.440478 3.369946,-2.426115 5.510415,-4.515348 5.529808,-5.397444 8.201158,-10.697021 9.050055,-17.954023 0.230256,-1.968393 0.260891,-6.471702 0.05998,-8.816477 -0.439034,-5.123781 -1.526996,-10.065875 -2.817413,-12.798174 -0.716928,-1.518006 -1.27181,-2.095955 -2.124506,-2.212831 -0.797473,-0.109305 -0.98489,-0.269466 -0.98489,-0.841649 0,-1.8376 5.627437,-8.281538 16.192583,-18.542013 5.422609,-5.266233 8.319635,-7.744863 10.12069,-8.659032 1.452976,-0.737491 1.864291,-0.432293 2.229745,1.654479 0.381027,2.175697 0.487862,6.154875 0.323865,12.06259 -0.113916,4.1036 -0.114364,6.164106 -0.0018,8.240627 0.171884,3.170571 0.220047,3.494219 0.519871,3.493532 0.609456,-0.0014 2.961837,-2.138858 3.699593,-3.361593 1.114246,-1.846727 1.608186,-5.320218 1.799946,-12.657691 0.0858,-3.28343 0.42099,-25.1594849 0.38634,-25.214682 -0.0494,-0.078733 -23.542143,-0.5616089 -27.332075,-0.5617918 -5.492326,-2.637e-4 -7.323808,0.1923523 -8.951006,0.9413792 -1.462073,0.6730162 -4.937661,4.8959076 -4.439505,5.3940636 0.15919,0.15919 1.200427,0.343883 2.946593,0.522662 0.761434,0.07796 5.211372,0.227758 9.888752,0.332888 9.731705,0.218733 11.22724,0.361469 12.097239,1.154577 0.409814,0.373593 0.375778,0.603693 -0.221133,1.494989 -1.65757,2.475048 -5.471655,6.564839 -15.741307,16.879194 l -8.684628,8.72243 -2.394225,-0.986874 c -5.469557,-2.25449 -6.964583,-2.81797 -8.658185,-3.263293 -2.144639,-0.563923 -4.977214,-1.05231 -7.35279,-1.267755 -2.304735,-0.209021 -8.381169,-0.09454 -10.445878,0.196808 -4.690253,0.661827 -8.66107,2.059682 -10.870934,3.826919 -3.391951,2.712561 -7.310015,6.393284 -9.196448,8.639363 -3.3316086,3.966779 -4.9375585,7.694888 -5.7364735,13.316852 -0.3452785,2.429726 -0.3450871,11.913254 2.901e-4,14.061151 0.4776851,2.970772 1.2914553,5.344571 2.9516456,8.610064 5.2676408,10.361128 14.9277788,16.732256 26.8733548,17.723726 1.085507,0.0901 5.324075,-0.0275 6.526575,-0.18106 z"
     id="path795"
     transform="scale(0.75)" />
  <path
     style="fill:#e6e6e6;stroke-width:0.13185"
     d="M 36.918006,106.13068 C 26.793692,105.57709 19.127289,102.27721 12.855377,95.773337 9.4325448,92.22391 6.8655375,88.611168 4.7579942,84.377282 2.902775,80.650294 1.7346918,76.983128 1.1018698,72.898977 0.67876243,70.168296 0.67842381,65.375586 1.1011456,62.647802 2.4281469,54.084787 6.4315633,46.495111 13.180112,39.748497 c 2.419003,-2.41831 3.633351,-3.427102 6.120118,-5.084151 4.103883,-2.734612 9.233359,-4.81338 14.106942,-5.716972 4.485157,-0.831574 9.648046,-0.810976 14.142747,0.05643 3.294518,0.635786 5.785061,1.537378 10.253051,3.711665 1.769384,0.861048 3.284805,1.565541 3.367601,1.565541 0.143147,0 16.577884,-16.643554 16.660289,-16.87197 0.02164,-0.05999 -4.339299,-0.137847 -9.690976,-0.173021 -5.890088,-0.03872 -10.380786,-0.125031 -11.37845,-0.2187 -3.301898,-0.310008 -5.137324,-0.719466 -5.449234,-1.215646 -0.311766,-0.495949 1.30355,-2.987689 3.883792,-5.9910276 0.67956,-0.790993 3.104596,-3.313268 5.388967,-5.6050554 l 4.153401,-4.16688626 7.713226,0.10098897 c 15.498026,0.20291507 34.613274,0.55951771 34.713254,0.64758976 0.0564,0.0497201 0.28393,9.30661753 0.50552,20.57088253 l 0.40289,20.480484 -4.06547,4.077923 c -8.232757,8.257987 -10.354638,10.031786 -12.000374,10.031786 -1.385585,0 -2.093863,-1.715339 -2.413592,-5.84535 -0.07017,-0.906469 -0.128938,-5.519572 -0.130583,-10.251339 -0.0016,-4.731768 -0.05324,-8.603214 -0.114644,-8.603214 -0.197838,0 -12.715986,12.680703 -13.770296,13.949112 -2.070713,2.491212 -2.197507,3.289755 -0.877273,5.524958 1.762229,2.983519 3.743169,8.844551 4.425195,13.092885 0.34525,2.150563 0.313419,6.051647 -0.06706,8.218623 -0.714955,4.071928 -1.955382,7.552297 -4.50795,12.648309 -2.598244,5.187202 -4.847379,8.387987 -8.183559,11.646174 -6.220455,6.075034 -13.875949,9.240694 -23.714162,9.806154 -2.528587,0.14533 -3.010834,0.145 -5.735476,-0.004 z m 6.394726,-5.13394 c 5.289315,-0.6755 10.499521,-2.591645 14.775664,-5.434007 2.1671,-1.440478 3.369946,-2.426115 5.510415,-4.515348 5.529808,-5.397444 8.201158,-10.697021 9.050055,-17.954023 0.230256,-1.968393 0.260891,-6.471702 0.05998,-8.816477 -0.439034,-5.123781 -1.526996,-10.065875 -2.817413,-12.798174 -0.716928,-1.518006 -1.27181,-2.095955 -2.124506,-2.212831 -0.797473,-0.109305 -0.98489,-0.269466 -0.98489,-0.841649 0,-1.8376 5.627437,-8.281538 16.192583,-18.542013 5.422609,-5.266233 8.319635,-7.744863 10.12069,-8.659032 1.452976,-0.737491 1.864291,-0.432293 2.229745,1.654479 0.381027,2.175697 0.487862,6.154875 0.323865,12.06259 -0.113916,4.1036 -0.114364,6.164106 -0.0018,8.240627 0.171884,3.170571 0.220047,3.494219 0.519871,3.493532 0.609456,-0.0014 2.961837,-2.138858 3.699593,-3.361593 1.114246,-1.846727 1.608186,-5.320218 1.799946,-12.657691 0.0858,-3.28343 0.42099,-25.1594849 0.38634,-25.214682 -0.0494,-0.078733 -23.542143,-0.5616089 -27.332075,-0.5617918 -5.492326,-2.637e-4 -7.323808,0.1923523 -8.951006,0.9413792 -1.462073,0.6730162 -4.937661,4.8959076 -4.439505,5.3940636 0.15919,0.15919 1.200427,0.343883 2.946593,0.522662 0.761434,0.07796 5.211372,0.227758 9.888752,0.332888 9.731705,0.218733 11.22724,0.361469 12.097239,1.154577 0.409814,0.373593 0.375778,0.603693 -0.221133,1.494989 -1.65757,2.475048 -5.471655,6.564839 -15.741307,16.879194 l -8.684628,8.72243 -2.394225,-0.986874 c -5.469557,-2.25449 -6.964583,-2.81797 -8.658185,-3.263293 -2.144639,-0.563923 -4.977214,-1.05231 -7.35279,-1.267755 -2.304735,-0.209021 -8.381169,-0.09454 -10.445878,0.196808 -4.690253,0.661827 -8.66107,2.059682 -10.870934,3.826919 -3.391951,2.712561 -7.310015,6.393284 -9.196448,8.639363 -3.3316086,3.966779 -4.9375585,7.694888 -5.7364735,13.316852 -0.3452785,2.429726 -0.3450871,11.913254 2.901e-4,14.061151 0.4776851,2.970772 1.2914553,5.344571 2.9516456,8.610064 5.2676408,10.361128 14.9277788,16.732256 26.8733548,17.723726 1.085507,0.0901 5.324075,-0.0275 6.526575,-0.18106 z"
     id="path834"
     transform="scale(0.75)" />
  <path
     style="fill:#e5ecf4;stroke-width:0.13185;fill-opacity:1"
     d="M 38.500206,93.133364 C 33.205432,92.529809 29.310182,91.15979 25.315204,88.495997 22.305313,86.489046 20.258001,84.39928 18.007549,81.036811 c -2.78598,-4.16262 -3.281746,-5.713924 -3.56533,-11.1563 -0.507513,-9.739881 0.522932,-13.344911 5.305226,-18.560423 4.609115,-5.026646 9.325738,-7.748555 15.599197,-9.002119 1.807957,-0.361267 5.125273,-0.487175 7.022968,-0.266557 10.475855,1.217883 19.74154,9.5192 22.35818,20.031152 0.578717,2.324904 0.668758,3.134583 0.661904,5.952047 -0.0098,4.025899 -0.477082,6.102535 -2.089782,9.287009 -2.393509,4.726276 -6.701376,9.715463 -10.813927,12.524225 -2.494662,1.703788 -5.800104,2.832683 -9.46472,3.23245 -1.19002,0.129816 -3.607052,0.159259 -4.521059,0.05507 z m 5.674828,-4.452498 c 4.647941,-0.811126 7.206881,-2.168399 10.679726,-5.664577 3.549166,-3.573009 5.597105,-7.624505 6.406571,-12.674303 0.264788,-1.651862 0.20128,-5.241538 -0.124848,-7.056824 -0.771785,-4.295873 -2.753779,-8.125011 -5.76336,-11.134593 -1.663491,-1.663491 -3.343184,-2.865421 -5.533815,-3.959807 -5.3114,-2.653447 -11.305347,-3.385796 -16.217553,-1.981483 -1.748595,0.499893 -4.359697,1.845635 -6.048397,3.117298 -1.771046,1.333675 -4.219162,3.748227 -5.39928,5.325257 -1.07921,1.442183 -2.336135,3.931771 -2.795834,5.5377 -0.804396,2.810105 -0.915432,3.919175 -0.917418,9.163577 l -0.0018,4.812526 0.622743,1.252575 c 1.808252,3.637091 7.579279,9.698062 11.118899,11.677532 1.856495,1.038209 4.68967,1.742345 7.574386,1.882478 2.163222,0.105084 4.794454,-0.01717 6.400003,-0.297356 z"
     id="path910"
     transform="scale(0.75)" />
  <path
     style="fill:#e5ecf4;fill-opacity:1;stroke-width:0.13185"
     d="M 35.828516,106.00503 C 27.65356,105.2731 21.502089,102.9778 16.151628,98.662989 14.485252,97.319162 11.475136,94.248843 9.9731491,92.360939 4.5049197,85.487717 1.3309224,77.631235 0.93106576,69.979398 0.63206351,64.257556 1.4212792,59.413767 3.492889,54.256283 5.5891149,49.037515 8.4717625,44.73899 12.987227,40.09859 c 2.324412,-2.388726 3.831013,-3.654655 6.322546,-5.312549 8.50043,-5.656288 18.888365,-7.656363 28.87922,-5.560357 2.935696,0.615888 5.086726,1.423986 9.963742,3.743179 1.517612,0.721678 2.857114,1.312142 2.976669,1.312142 0.249664,0 2.228411,-1.956816 10.722854,-10.604014 3.342759,-3.402871 6.031751,-6.230743 5.975537,-6.284158 -0.05621,-0.05342 -4.75981,-0.161835 -10.452434,-0.240933 -10.819456,-0.150333 -12.259688,-0.230043 -14.567186,-0.806218 -0.578906,-0.144551 -1.159137,-0.369399 -1.289401,-0.499663 -0.22789,-0.227891 -0.21936,-0.271445 0.225641,-1.152268 1.099918,-2.177137 3.113678,-4.537174 8.642893,-10.1290904 l 4.416977,-4.46706583 6.526576,0.08742549 c 17.31856,0.23198743 35.620879,0.58837921 35.731359,0.69577853 0.10224,0.0993978 0.28655,7.76909111 0.8054,33.51446621 l 0.14977,7.431938 -2.15867,2.172365 c -5.66474,5.700663 -10.291693,10.021719 -11.887424,11.101522 -2.474999,1.674788 -3.589089,0.696191 -4.189037,-3.679582 -0.09735,-0.710064 -0.184506,-4.583198 -0.237839,-10.570075 -0.0463,-5.197142 -0.134666,-9.498749 -0.196371,-9.559126 -0.138098,-0.135128 -12.883806,12.68476 -14.033433,14.115106 -1.106951,1.37725 -1.477925,2.131155 -1.481197,3.010124 -0.0023,0.611836 0.133067,0.969329 1.112329,2.938046 1.68439,3.386312 2.998682,7.160876 3.842233,11.03465 0.3051,1.401087 0.362209,2.022232 0.417747,4.543696 0.0697,3.16432 -0.0248,4.27664 -0.575183,6.770233 -0.66526,3.014065 -1.845274,6.196758 -3.725724,10.048895 -2.470146,5.06014 -4.517237,8.185997 -7.309251,11.161047 -5.927415,6.315996 -12.49927,9.611236 -21.615155,10.838196 -2.283526,0.30735 -7.962727,0.44874 -10.151899,0.25273 z m 8.802716,-5.13691 c 5.683818,-0.975998 10.949609,-3.232705 15.473907,-6.631498 1.55677,-1.169495 4.810376,-4.322215 6.242246,-6.048691 3.49194,-4.210405 5.422463,-8.574886 6.231582,-14.088219 0.491725,-3.350607 0.404223,-8.987444 -0.205354,-13.228902 -0.982772,-6.838155 -2.694776,-11.327893 -4.435945,-11.633287 -0.699446,-0.12268 -1.089708,-0.400627 -1.089708,-0.776099 0,-0.479228 0.792096,-1.900741 1.824558,-3.274397 2.069003,-2.752735 6.324681,-7.326288 12.23369,-13.147472 8.227615,-8.105331 11.981578,-11.211546 13.352747,-11.048727 0.46282,0.05496 0.749463,0.617253 1.029071,2.018687 0.213667,1.070928 0.237178,2.098546 0.244322,10.678165 0.0072,8.622716 0.05984,11.026135 0.273698,12.49279 0.05873,0.402787 0.126859,0.494437 0.367528,0.494437 0.812522,0 3.33329,-2.416767 4.001606,-3.836511 1.32001,-2.804162 1.57795,-6.927591 1.82737,-29.21212 l 0.0917,-8.1949008 -0.84524,-0.076477 C 99.445738,5.1917367 85.358542,4.9542441 77.198187,4.9494308 c -7.690576,-0.00454 -8.676554,0.018622 -9.6059,0.2256223 -2.005045,0.4465971 -2.927651,1.0818563 -4.727541,3.2551408 -1.161674,1.4026668 -1.815651,2.5686331 -1.575447,2.8088371 0.440043,0.440043 3.676837,0.664118 12.876338,0.891396 8.39459,0.207393 10.558035,0.369863 11.617095,0.87242 0.978292,0.46423 0.854042,0.910777 -0.845978,3.040404 -2.14433,2.686215 -5.402045,6.107655 -16.468594,17.296269 l -6.828275,6.903592 -3.909841,-1.596914 c -4.717938,-1.926967 -6.484242,-2.529528 -8.942103,-3.050531 -3.796145,-0.804683 -5.608657,-0.954752 -10.61736,-0.87907 -4.958231,0.07492 -5.983811,0.182876 -9.163576,0.964595 -3.200788,0.786886 -5.560186,1.831188 -7.379168,3.266121 -2.767804,2.183426 -7.269999,6.442973 -9.073649,8.584619 -2.9444596,3.49624 -4.6241741,7.20345 -5.496123,12.130202 -0.2737263,1.54663 -0.5156055,7.253903 -0.4107121,9.690977 0.045258,1.051504 0.07824,2.362096 0.073295,2.912426 -0.018944,2.10818 0.5288042,4.967846 1.4120291,7.371875 1.1076826,3.014975 3.464535,7.216529 5.365068,9.564288 2.149307,2.655074 4.488155,4.790303 7.271302,6.638268 4.12522,2.739082 8.763208,4.441252 14.237133,5.225112 1.963229,0.28113 7.500728,0.16782 9.625052,-0.19696 z"
     id="path1801"
     transform="scale(0.75)" />
</svg>
